<svg width="10" height="14" viewBox="0 0 10 14" fill="none" xmlns="http://www.w3.org/2000/svg">
<path d="M4.48744 13.719C0.701443 7.959 0.00144339 7.367 0.00144339 5.25C-0.0307813 3.89103 0.477687 2.57482 1.41517 1.59046C2.35266 0.606096 3.64251 0.0340656 5.00144 0C6.36037 0.0340656 7.65023 0.606096 8.58771 1.59046C9.5252 2.57482 10.0337 3.89103 10.0014 5.25C10.0014 7.367 9.30144 7.958 5.51544 13.718C5.46046 13.8045 5.38452 13.8758 5.29467 13.9251C5.20482 13.9745 5.10396 14.0004 5.00144 14.0004C4.89893 14.0004 4.79807 13.9745 4.70822 13.9251C4.61836 13.8758 4.54243 13.8055 4.48744 13.719ZM5.00144 7.438C5.56774 7.42385 6.10525 7.18544 6.49584 6.77516C6.88643 6.36488 7.09814 5.81631 7.08444 5.25C7.09787 4.68387 6.88604 4.13555 6.49548 3.72549C6.10491 3.31542 5.56756 3.07715 5.00144 3.063C4.43533 3.07715 3.89797 3.31542 3.50741 3.72549C3.11685 4.13555 2.90502 4.68387 2.91844 5.25C2.90475 5.81631 3.11646 6.36488 3.50705 6.77516C3.89764 7.18544 4.43515 7.42385 5.00144 7.438Z" fill="#F9F2E5"/>
</svg>
