<svg width="171" height="30" viewBox="0 0 171 30" fill="none" xmlns="http://www.w3.org/2000/svg">
<path d="M71.779 26.375C72.918 26.3876 74.0454 26.1457 75.079 25.667L74.759 29.253C73.5884 29.7401 72.3339 29.9936 71.066 29.999C67.092 29.999 64.606 28.012 64.606 23.966V7.17501L69.04 6.57501V11.402H75.107L74.787 14.702H69.04V23.43C69.04 25.664 70.319 26.376 71.773 26.376L71.779 26.375Z" fill="#F9F2E5"/>
<path d="M0 29.254V2.026H14.8V6.376H4.676V13.3H13.4V17.692H4.676V24.898H14.8V29.254H0Z" fill="#F9F2E5"/>
<path d="M29.12 29.253L25.548 22.958H25.296L21.724 29.253H17.124L22.755 19.716L17.261 10.475H22.122L25.509 16.44H25.732L29.119 10.475H33.719L28.306 19.675L33.937 29.246H29.12V29.253Z" fill="#F9F2E5"/>
<path d="M46.046 29.404C45.2143 29.4978 44.378 29.5462 43.541 29.549C41.9152 29.666 40.2906 29.3074 38.865 28.517C37.8458 27.8119 37.1444 26.7344 36.912 25.517C36.5701 23.654 36.4223 21.7605 36.471 19.867C36.4182 17.977 36.586 16.0872 36.971 14.236C37.2218 13.0068 37.9317 11.9193 38.956 11.195C40.3297 10.4263 41.8976 10.0743 43.468 10.182C44.323 10.1831 45.1774 10.2315 46.027 10.327C46.744 10.394 47.453 10.5279 48.145 10.727V14.195C46.9902 13.9869 45.8185 13.8865 44.645 13.895C43.7947 13.8375 42.9428 13.9821 42.159 14.317C41.8843 14.4969 41.6528 14.7353 41.4811 15.0152C41.3094 15.2951 41.2018 15.6096 41.166 15.936C40.9726 17.2332 40.8933 18.5449 40.929 19.856C40.8928 21.1808 40.9789 22.506 41.186 23.815C41.2243 24.1405 41.3351 24.4533 41.5105 24.7303C41.6858 25.0072 41.9211 25.2412 42.199 25.415C42.9864 25.7359 43.8367 25.8727 44.685 25.815C45.8914 25.819 47.0964 25.7331 48.29 25.558V28.979C47.5539 29.1735 46.8036 29.3096 46.046 29.386V29.404Z" fill="#F9F2E5"/>
<path d="M52.845 4.489V0H57.371V4.489H52.845ZM52.884 29.254V9.174H57.337V29.254H52.884Z" fill="#F9F2E5"/>
<path d="M91.21 21.305H80.933C80.8924 22.3347 80.9719 23.3657 81.17 24.377C81.2425 24.6548 81.3854 24.9091 81.5849 25.1155C81.7844 25.3219 82.0339 25.4733 82.309 25.555C83.338 25.8135 84.3993 25.9196 85.459 25.87C87.1818 25.8622 88.903 25.762 90.615 25.57V28.991C89.6928 29.1946 88.757 29.3306 87.815 29.398C86.662 29.498 85.542 29.543 84.466 29.543C82.6427 29.6606 80.8177 29.3382 79.145 28.603C78.6009 28.3042 78.1261 27.8937 77.752 27.3983C77.3778 26.903 77.1127 26.3341 76.974 25.729C76.5825 23.8098 76.4147 21.8518 76.474 19.894C76.4127 17.9603 76.5806 16.0262 76.974 14.132C77.1097 13.5207 77.3672 12.943 77.7311 12.4334C78.095 11.9238 78.5579 11.4928 79.092 11.166C80.6571 10.397 82.3973 10.0545 84.137 10.173C85.8076 10.0446 87.4814 10.3748 88.978 11.128C89.4711 11.4465 89.8916 11.8652 90.2123 12.3569C90.5329 12.8486 90.7464 13.4023 90.839 13.982C91.1312 15.9368 91.2543 17.9131 91.207 19.889V21.289L91.21 21.305ZM82.01 14.162C81.7904 14.2906 81.602 14.4664 81.4586 14.6767C81.3153 14.887 81.2204 15.1265 81.181 15.378C81.0129 16.338 80.9336 17.3114 80.944 18.286H87.01C87.0412 17.2982 86.9617 16.3101 86.773 15.34C86.73 15.0873 86.6317 14.8473 86.4851 14.6371C86.3385 14.4269 86.1472 14.2517 85.925 14.124C85.3327 13.8943 84.6986 13.7921 84.064 13.824C83.3614 13.7795 82.6576 13.8922 82.004 14.154L82.01 14.162Z" fill="#F9F2E5"/>
<path d="M108.798 29.372C107.857 29.4867 106.911 29.5458 105.963 29.549C103.24 29.549 101.246 29.1537 99.983 28.363C99.3083 27.8986 98.7353 27.3018 98.2988 26.6087C97.8623 25.9157 97.5715 25.1411 97.444 24.332C96.9331 21.4643 96.717 18.5518 96.799 15.64C96.716 12.7352 96.9322 9.82957 97.444 6.96902C97.5781 6.15974 97.8738 5.38575 98.3135 4.6932C98.7531 4.00066 99.3277 3.40373 100.003 2.93802C101.278 2.13802 103.266 1.73568 105.968 1.73102C106.928 1.73453 107.886 1.80135 108.837 1.93102C109.634 2.02415 110.421 2.18234 111.192 2.40402V6.43202C109.814 6.23337 108.426 6.11517 107.034 6.07802C105.732 5.98651 104.425 6.18176 103.206 6.65002C102.805 6.9173 102.472 7.27386 102.232 7.69168C101.993 8.1095 101.853 8.5772 101.825 9.05802C101.562 11.241 101.457 13.44 101.51 15.638C101.455 17.8361 101.56 20.0353 101.825 22.218C101.853 22.699 101.992 23.167 102.232 23.5849C102.471 24.0028 102.805 24.3592 103.206 24.626C104.424 25.0969 105.731 25.2922 107.034 25.198C108.464 25.1966 109.892 25.0782 111.303 24.844V28.92C110.481 29.1342 109.643 29.2846 108.798 29.372Z" fill="#F9F2E5"/>
<path d="M118.27 28.721C117.749 28.4491 117.296 28.063 116.945 27.5914C116.594 27.1199 116.355 26.5752 116.244 25.998C115.887 23.9752 115.739 21.921 115.803 19.868C115.74 17.8037 115.887 15.7383 116.244 13.704C116.354 13.1295 116.594 12.5877 116.945 12.1198C117.296 11.6519 117.749 11.2703 118.27 11.004C119.921 10.3607 121.692 10.0846 123.46 10.195C125.216 10.0832 126.974 10.3594 128.611 11.004C129.134 11.273 129.589 11.6582 129.94 12.1303C130.291 12.6023 130.53 13.1485 130.637 13.727C130.993 15.7566 131.141 17.8173 131.078 19.877C131.142 21.93 130.994 23.9842 130.637 26.007C130.526 26.5842 130.287 27.1289 129.936 27.6004C129.585 28.072 129.132 28.4581 128.611 28.73C126.977 29.3875 125.217 29.6707 123.46 29.559C121.69 29.6699 119.917 29.3868 118.27 28.73V28.721ZM125.709 25.464C125.942 25.2939 126.133 25.0727 126.267 24.8173C126.402 24.562 126.476 24.2794 126.484 23.991C126.607 22.62 126.656 21.2433 126.629 19.867C126.656 18.4844 126.607 17.1014 126.484 15.724C126.476 15.4402 126.404 15.162 126.273 14.9101C126.142 14.6583 125.956 14.4394 125.728 14.27C125.015 13.9653 124.238 13.839 123.465 13.902C122.686 13.8407 121.903 13.9669 121.183 14.27C120.952 14.4373 120.761 14.6553 120.627 14.9072C120.493 15.1592 120.418 15.4386 120.408 15.724C120.284 17.1013 120.236 18.4844 120.263 19.867C120.234 21.2429 120.281 22.6193 120.403 23.99C120.409 24.2788 120.482 24.5622 120.617 24.8178C120.751 25.0734 120.944 25.2943 121.178 25.463C121.898 25.7661 122.681 25.8923 123.46 25.831C124.227 25.8936 124.997 25.7672 125.704 25.463L125.709 25.464Z" fill="#F9F2E5"/>
<path d="M139.52 28.643C138.588 27.8352 137.963 26.7303 137.751 25.515C137.327 23.4504 137.141 21.3439 137.199 19.237C137.144 17.1446 137.323 15.0527 137.732 13C137.941 11.7763 138.549 10.6563 139.462 9.815C140.43 9.12073 141.607 8.78069 142.796 8.852C143.808 8.81952 144.815 9.01429 145.742 9.422C146.563 9.83835 147.214 10.5269 147.583 11.37H147.84V0H152.26V29.234H148.136L147.991 26.753H147.734C147.021 28.6197 145.414 29.5503 142.912 29.545C141.715 29.6169 140.526 29.299 139.525 28.639L139.52 28.643ZM146.532 24.986C146.965 24.714 147.285 24.2945 147.432 23.805C147.599 23.2202 147.704 22.6196 147.747 22.013C147.81 21.293 147.839 20.356 147.839 19.2C147.839 18.123 147.82 17.268 147.786 16.621C147.763 16.0676 147.67 15.5193 147.51 14.989C147.403 14.4128 147.089 13.8954 146.628 13.534C146.072 13.209 145.432 13.0578 144.789 13.1C144.063 13.044 143.334 13.1723 142.671 13.473C142.433 13.6641 142.238 13.9031 142.099 14.1744C141.96 14.4458 141.879 14.7434 141.862 15.048C141.695 16.4243 141.628 17.811 141.662 19.197C141.628 20.5967 141.695 21.9969 141.862 23.387C141.879 23.6916 141.96 23.9892 142.099 24.2606C142.238 24.5319 142.433 24.7709 142.671 24.962C143.334 25.2627 144.063 25.391 144.789 25.335C145.392 25.3681 145.994 25.2469 146.538 24.983L146.532 24.986Z" fill="#F9F2E5"/>
<path d="M170.995 21.305H160.721C160.68 22.3347 160.76 23.3657 160.958 24.377C161.03 24.6548 161.173 24.9091 161.373 25.1155C161.572 25.3219 161.822 25.4733 162.097 25.555C163.126 25.8135 164.187 25.9196 165.247 25.87C166.97 25.8622 168.691 25.762 170.403 25.57V28.991C169.481 29.1946 168.545 29.3306 167.603 29.398C166.45 29.498 165.33 29.543 164.254 29.543C162.431 29.6606 160.606 29.3382 158.933 28.603C158.389 28.3042 157.914 27.8937 157.54 27.3983C157.166 26.903 156.901 26.3341 156.762 25.729C156.37 23.8098 156.203 21.8518 156.262 19.894C156.201 17.9603 156.369 16.0262 156.762 14.132C156.898 13.5207 157.155 12.943 157.519 12.4335C157.883 11.9239 158.346 11.4928 158.88 11.166C160.445 10.397 162.185 10.0545 163.925 10.173C165.596 10.0446 167.269 10.3748 168.766 11.128C169.259 11.4465 169.68 11.8652 170 12.3569C170.321 12.8486 170.534 13.4023 170.627 13.982C170.919 15.9368 171.042 17.9131 170.995 19.889V21.289V21.305ZM161.795 14.162C161.575 14.2906 161.387 14.4664 161.244 14.6767C161.1 14.887 161.005 15.1265 160.966 15.378C160.798 16.338 160.719 17.3114 160.729 18.286H166.801C166.832 17.2982 166.753 16.3101 166.564 15.34C166.521 15.0873 166.423 14.8473 166.276 14.6371C166.129 14.4269 165.938 14.2517 165.716 14.124C165.124 13.8943 164.49 13.7921 163.855 13.824C163.152 13.7794 162.449 13.8922 161.795 14.154V14.162Z" fill="#F9F2E5"/>
</svg>
