<svg width="23" height="23" viewBox="0 0 23 23" fill="none" xmlns="http://www.w3.org/2000/svg">
<g clip-path="url(#clip0_1_126)">
<mask id="mask0_1_126" style="mask-type:luminance" maskUnits="userSpaceOnUse" x="16" y="11" width="7" height="1">
<path d="M23 11.042H16.314V11.962H23V11.042Z" fill="white"/>
</mask>
<g mask="url(#mask0_1_126)">
<path d="M22.549 11.502H16.804" stroke="#F9F2E5" stroke-linecap="round" stroke-linejoin="round"/>
</g>
<mask id="mask1_1_126" style="mask-type:luminance" maskUnits="userSpaceOnUse" x="0" y="11" width="7" height="1">
<path d="M6.884 11.042H0V11.962H6.884V11.042Z" fill="white"/>
</mask>
<g mask="url(#mask1_1_126)">
<path d="M6.198 11.502H0.453003" stroke="#F9F2E5" stroke-linecap="round" stroke-linejoin="round"/>
</g>
<mask id="mask2_1_126" style="mask-type:luminance" maskUnits="userSpaceOnUse" x="10" y="0" width="3" height="7">
<path d="M12.214 0H10.988V6.939H12.214V0Z" fill="white"/>
</mask>
<g mask="url(#mask2_1_126)">
<path d="M11.503 6.198V0.453003" stroke="#F9F2E5" stroke-linecap="round" stroke-linejoin="round"/>
</g>
<mask id="mask3_1_126" style="mask-type:luminance" maskUnits="userSpaceOnUse" x="10" y="16" width="3" height="7">
<path d="M12.214 16.063H10.988V23H12.214V16.063Z" fill="white"/>
</mask>
<g mask="url(#mask3_1_126)">
<path d="M11.503 22.549V16.804" stroke="#F9F2E5" stroke-linecap="round" stroke-linejoin="round"/>
</g>
<mask id="mask4_1_126" style="mask-type:luminance" maskUnits="userSpaceOnUse" x="4" y="8" width="15" height="15">
<path d="M18.651 8.39697H4.237V23H18.651V8.39697Z" fill="white"/>
</mask>
<g mask="url(#mask4_1_126)">
<path d="M18.196 15.854C18.1968 16.073 18.1861 16.292 18.164 16.51C18.1423 16.7279 18.1089 16.9446 18.064 17.159C18.02 17.375 17.964 17.587 17.905 17.796C17.846 18.005 17.767 18.212 17.684 18.415C17.6006 18.6173 17.5068 18.8153 17.403 19.008C17.303 19.201 17.187 19.39 17.065 19.571C16.8209 19.9352 16.5419 20.2748 16.232 20.585C16.078 20.739 15.915 20.885 15.747 21.027C15.579 21.169 15.4 21.296 15.218 21.418C15.036 21.54 14.848 21.653 14.655 21.756C14.4623 21.8598 14.2644 21.9536 14.062 22.037C13.862 22.12 13.653 22.193 13.443 22.258C13.233 22.323 13.02 22.375 12.806 22.419C12.592 22.463 12.374 22.493 12.155 22.519C11.936 22.545 11.718 22.551 11.5 22.551C11.282 22.551 11.061 22.539 10.844 22.519C10.6254 22.4971 10.4081 22.4637 10.193 22.419C9.979 22.375 9.765 22.319 9.556 22.258C9.347 22.197 9.14 22.122 8.937 22.037C8.734 21.952 8.537 21.858 8.344 21.756C8.151 21.654 7.962 21.54 7.78 21.418C7.598 21.296 7.421 21.165 7.251 21.027C6.9128 20.7479 6.60235 20.4368 6.324 20.098C6.186 19.93 6.055 19.753 5.933 19.571C5.811 19.389 5.698 19.201 5.595 19.008C5.492 18.815 5.395 18.617 5.314 18.415C5.233 18.213 5.155 18.006 5.093 17.796C5.02841 17.5867 4.97534 17.374 4.934 17.159C4.88908 16.9446 4.8557 16.7279 4.834 16.51C4.813 16.291 4.802 16.073 4.802 15.854C4.802 15.635 4.813 15.415 4.834 15.199C4.85588 14.9803 4.88926 14.763 4.934 14.548C4.975 14.332 5.034 14.12 5.093 13.911C5.152 13.702 5.231 13.495 5.314 13.292C5.39738 13.0896 5.49117 12.8916 5.595 12.699C5.695 12.506 5.811 12.317 5.933 12.136C6.055 11.955 6.186 11.777 6.324 11.607C6.46273 11.4367 6.61026 11.2738 6.766 11.119C6.92 10.965 7.083 10.819 7.251 10.677C7.419 10.535 7.598 10.408 7.78 10.286C7.962 10.164 8.15 10.051 8.344 9.94796C8.538 9.84496 8.735 9.74795 8.937 9.66695C9.13928 9.58239 9.34591 9.50862 9.556 9.44595C9.765 9.38395 9.979 9.32895 10.193 9.28495C10.407 9.24095 10.625 9.21096 10.844 9.18496C11.063 9.15896 11.281 9.15295 11.5 9.15295C11.719 9.15295 11.939 9.16496 12.155 9.18496C12.3736 9.20683 12.5909 9.24021 12.806 9.28495C13.02 9.32895 13.234 9.38495 13.443 9.44595C13.652 9.50695 13.859 9.58195 14.062 9.66695C14.2644 9.75033 14.4623 9.84412 14.655 9.94796C14.848 10.048 15.037 10.164 15.218 10.286C15.399 10.408 15.577 10.539 15.747 10.677C15.9163 10.8157 16.0782 10.9633 16.232 11.119C16.388 11.275 16.532 11.436 16.674 11.607C16.8142 11.7758 16.9448 11.9524 17.065 12.136C17.187 12.318 17.3 12.506 17.403 12.699C17.5068 12.8916 17.6006 13.0896 17.684 13.292C17.767 13.492 17.843 13.701 17.905 13.911C17.967 14.121 18.022 14.332 18.064 14.548C18.1089 14.763 18.1423 14.9803 18.164 15.199C18.185 15.415 18.196 15.633 18.196 15.854Z" stroke="#F9F2E5" stroke-linecap="round" stroke-linejoin="round"/>
</g>
<mask id="mask5_1_126" style="mask-type:luminance" maskUnits="userSpaceOnUse" x="4" y="0" width="15" height="15">
<path d="M18.651 0H4.237V14.607H18.651V0Z" fill="white"/>
</mask>
<g mask="url(#mask5_1_126)">
<path d="M18.196 7.15103C18.1959 7.58953 18.1527 8.02697 18.067 8.45703C18.023 8.67103 17.967 8.88503 17.908 9.09403C17.849 9.30303 17.77 9.51003 17.687 9.71303C17.6041 9.91561 17.5103 10.1136 17.406 10.306C17.306 10.499 17.19 10.688 17.068 10.87C16.946 11.052 16.817 11.229 16.677 11.399C16.5382 11.5683 16.3907 11.7302 16.235 11.884C16.081 12.04 15.918 12.184 15.75 12.326C15.582 12.468 15.403 12.595 15.221 12.717C15.039 12.839 14.851 12.952 14.658 13.055C14.465 13.158 14.267 13.255 14.065 13.336C13.863 13.417 13.656 13.495 13.446 13.557C13.236 13.619 13.023 13.674 12.809 13.716C12.5939 13.7608 12.3766 13.7941 12.158 13.816C11.94 13.837 11.721 13.848 11.503 13.848C11.285 13.848 11.064 13.836 10.847 13.816C10.6284 13.7941 10.4111 13.7608 10.196 13.716C9.98199 13.675 9.76799 13.616 9.55899 13.557C9.34999 13.498 9.14299 13.419 8.93999 13.336C8.73761 13.2526 8.53968 13.1589 8.34699 13.055C8.15399 12.955 7.96499 12.839 7.78299 12.717C7.60099 12.595 7.42399 12.466 7.25399 12.326C7.08399 12.186 6.92299 12.041 6.76899 11.884C6.6133 11.7302 6.46576 11.5683 6.32699 11.399C6.18899 11.229 6.05799 11.052 5.93599 10.87C5.81399 10.688 5.70099 10.5 5.59799 10.306C5.49499 10.112 5.39799 9.91503 5.31699 9.71303C5.23599 9.51103 5.15799 9.30403 5.09599 9.09403C5.03399 8.88403 4.97899 8.67103 4.93699 8.45703C4.89225 8.24193 4.85887 8.02463 4.83699 7.80603C4.81599 7.58703 4.80499 7.36903 4.80499 7.15003C4.80499 6.93103 4.81599 6.71103 4.83699 6.49403C4.85887 6.27542 4.89225 6.05812 4.93699 5.84303C4.97799 5.62903 5.03699 5.41503 5.09599 5.20603C5.15499 4.99703 5.23399 4.79003 5.31699 4.58703C5.39992 4.38445 5.49372 4.18649 5.59799 3.99403C5.69799 3.80103 5.81399 3.61203 5.93599 3.43003C6.05799 3.24803 6.18899 3.07103 6.32699 2.90103C6.46576 2.73176 6.6133 2.56987 6.76899 2.41603C6.92299 2.26003 7.08599 2.11603 7.25399 1.97403C7.42199 1.83203 7.60099 1.70503 7.78299 1.58303C7.96499 1.46103 8.15299 1.34803 8.34699 1.24503C8.53968 1.1412 8.73761 1.0474 8.93999 0.964026C9.13999 0.881026 9.34899 0.805026 9.55899 0.743026C9.76834 0.678698 9.98097 0.625622 10.196 0.584026C10.4111 0.539285 10.6284 0.505906 10.847 0.484026C11.066 0.463026 11.284 0.452026 11.503 0.452026C11.722 0.452026 11.942 0.464026 12.158 0.484026C12.3766 0.505906 12.5939 0.539285 12.809 0.584026C13.023 0.628026 13.237 0.684026 13.446 0.743026C13.655 0.802026 13.862 0.881026 14.065 0.964026C14.2674 1.0474 14.4653 1.1412 14.658 1.24503C14.851 1.34503 15.04 1.46103 15.221 1.58303C15.402 1.70503 15.58 1.83403 15.75 1.97403C15.92 2.11403 16.081 2.25903 16.235 2.41603C16.389 2.57303 16.535 2.73303 16.677 2.90103C16.8167 3.07025 16.9472 3.24684 17.068 3.43003C17.19 3.61203 17.303 3.80003 17.406 3.99403C17.5098 4.18671 17.6036 4.38465 17.687 4.58703C17.77 4.78703 17.846 4.99603 17.908 5.20603C17.9723 5.41537 18.0254 5.62801 18.067 5.84303C18.1117 6.05812 18.1451 6.27542 18.167 6.49403C18.188 6.71303 18.199 6.93103 18.199 7.15003L18.196 7.15103Z" stroke="#F9F2E5" stroke-linecap="round" stroke-linejoin="round"/>
</g>
<mask id="mask6_1_126" style="mask-type:luminance" maskUnits="userSpaceOnUse" x="0" y="4" width="15" height="15">
<path d="M14.552 4.29395H0V18.7079H14.552V4.29395Z" fill="white"/>
</mask>
<g mask="url(#mask6_1_126)">
<path d="M13.852 11.4989C13.852 11.7179 13.841 11.9379 13.82 12.1549C13.7983 12.3729 13.7649 12.5895 13.72 12.8039C13.679 13.0199 13.62 13.2319 13.561 13.4429C13.502 13.6539 13.423 13.8589 13.34 14.0619C13.2566 14.2643 13.1629 14.4622 13.059 14.6549C12.959 14.8479 12.843 15.0369 12.721 15.2179C12.599 15.3989 12.468 15.5769 12.33 15.7449C12.1913 15.9152 12.0438 16.0781 11.888 16.2329C11.732 16.3889 11.571 16.5329 11.403 16.6749C11.2338 16.8146 11.0572 16.9451 10.874 17.0659C10.692 17.1879 10.504 17.3009 10.31 17.4039C10.1173 17.5078 9.9194 17.6015 9.71702 17.6849C9.51702 17.7679 9.30802 17.8439 9.09802 17.9059C8.88802 17.9679 8.67502 18.0229 8.46102 18.0649C8.24593 18.1097 8.02863 18.143 7.81002 18.1649C7.59102 18.1859 7.37302 18.1969 7.15402 18.1969C6.93502 18.1969 6.71502 18.1849 6.49802 18.1649C6.27942 18.143 6.06212 18.1097 5.84702 18.0649C5.63302 18.0209 5.41902 17.9649 5.21002 17.9059C5.00102 17.8469 4.79402 17.7679 4.59102 17.6849C4.38864 17.6015 4.19071 17.5078 3.99802 17.4039C3.80502 17.3039 3.61602 17.1879 3.43402 17.0659C3.25202 16.9439 3.07502 16.8149 2.90502 16.6749C2.73575 16.5362 2.57387 16.3886 2.42002 16.2329C2.26402 16.0769 2.12002 15.9159 1.97802 15.7449C1.83781 15.5768 1.70727 15.4009 1.58702 15.2179C1.46502 15.0359 1.35202 14.8479 1.24902 14.6539C1.14519 14.4612 1.0514 14.2633 0.968022 14.0609C0.885022 13.8609 0.809022 13.6519 0.747022 13.4419C0.621215 13.0217 0.535827 12.5904 0.492022 12.1539C0.471022 11.9349 0.460022 11.7169 0.460022 11.4979C0.460022 11.2789 0.472022 11.0589 0.492022 10.8419C0.513901 10.6233 0.547281 10.406 0.592022 10.1909C0.636022 9.97693 0.692022 9.76293 0.751022 9.55393C0.810022 9.34493 0.889022 9.13793 0.972022 8.93493C1.0554 8.73255 1.14919 8.53462 1.25302 8.34193C1.35302 8.14893 1.46902 7.95993 1.59102 7.77793C1.71302 7.59593 1.84202 7.41893 1.98202 7.24893C2.26119 6.91147 2.57157 6.6011 2.90902 6.32193C3.07902 6.18393 3.25602 6.05293 3.43802 5.93093C3.62002 5.80893 3.80802 5.69593 4.00202 5.59293C4.19602 5.48993 4.39302 5.39293 4.59502 5.31193C4.79702 5.23093 5.00402 5.15293 5.21402 5.09093C5.42337 5.0266 5.636 4.97353 5.85102 4.93193C6.06612 4.88719 6.28342 4.85381 6.50202 4.83193C6.72102 4.81093 6.93902 4.79993 7.15802 4.79993C7.37702 4.79993 7.59702 4.81093 7.81402 4.83193C8.03263 4.85381 8.24993 4.88719 8.46502 4.93193C8.67902 4.97293 8.89302 5.03193 9.10202 5.09093C9.31102 5.14993 9.51802 5.22893 9.72102 5.31193C9.9234 5.39531 10.1213 5.4891 10.314 5.59293C10.507 5.69293 10.696 5.80893 10.878 5.93093C11.06 6.05293 11.237 6.18393 11.407 6.32193C11.7445 6.6011 12.0549 6.91147 12.334 7.24893C12.472 7.41893 12.603 7.59593 12.725 7.77793C12.847 7.95993 12.96 8.14793 13.063 8.34193C13.166 8.53593 13.263 8.73293 13.344 8.93493C13.425 9.13693 13.503 9.34393 13.565 9.55393C13.627 9.76393 13.682 9.97693 13.724 10.1909C13.7688 10.406 13.8021 10.6233 13.824 10.8419C13.845 11.0609 13.856 11.2789 13.856 11.4979L13.852 11.4989Z" stroke="#F9F2E5" stroke-linecap="round" stroke-linejoin="round"/>
</g>
<mask id="mask7_1_126" style="mask-type:luminance" maskUnits="userSpaceOnUse" x="8" y="4" width="15" height="15">
<path d="M23 4.29395H8.64801V18.7079H23V4.29395Z" fill="white"/>
</mask>
<g mask="url(#mask7_1_126)">
<path d="M22.549 11.4989C22.549 11.7179 22.537 11.9379 22.517 12.1549C22.4953 12.3729 22.4619 12.5895 22.417 12.8039C22.373 13.0199 22.317 13.2319 22.258 13.4429C22.199 13.6539 22.12 13.8589 22.037 14.0619C21.954 14.2649 21.858 14.4619 21.756 14.6549C21.654 14.8479 21.54 15.0369 21.418 15.2179C21.296 15.3989 21.165 15.5769 21.027 15.7449C20.8883 15.9152 20.7408 16.078 20.585 16.2329C20.429 16.3869 20.268 16.5329 20.097 16.6749C19.9289 16.8151 19.7529 16.9457 19.57 17.0659C19.386 17.1879 19.2 17.3009 19.007 17.4039C18.8143 17.5077 18.6164 17.6015 18.414 17.6849C18.214 17.7679 18.005 17.8439 17.795 17.9059C17.3748 18.0317 16.9435 18.1171 16.507 18.1609C16.289 18.1819 16.07 18.1929 15.851 18.1929C15.632 18.1929 15.412 18.1809 15.196 18.1609C14.9774 18.139 14.7601 18.1056 14.545 18.0609C14.329 18.0169 14.117 17.9609 13.908 17.9019C13.699 17.8429 13.492 17.7639 13.289 17.6809C13.0866 17.5975 12.8887 17.5037 12.696 17.3999C12.503 17.2999 12.314 17.1839 12.133 17.0619C11.95 16.9409 11.7734 16.8104 11.604 16.6709C11.4342 16.5327 11.2723 16.3852 11.119 16.2289C10.9633 16.074 10.8157 15.9112 10.677 15.7409C10.539 15.5729 10.408 15.3959 10.286 15.2139C10.164 15.0319 10.051 14.8439 9.94802 14.6499C9.84502 14.4559 9.74802 14.2589 9.66702 14.0569C9.58602 13.8549 9.50802 13.6479 9.44602 13.4379C9.38402 13.2279 9.32902 13.0149 9.28502 12.7989C9.24102 12.5829 9.21102 12.3689 9.18502 12.1499C9.15902 11.9309 9.15302 11.7129 9.15302 11.4939C9.15302 11.2749 9.16402 11.0549 9.18502 10.8379C9.2069 10.6193 9.24027 10.402 9.28502 10.1869C9.32902 9.9729 9.38502 9.7589 9.44602 9.5499C9.50702 9.3409 9.58402 9.1339 9.66702 8.9309C9.75039 8.72852 9.84419 8.53059 9.94802 8.3379C10.048 8.1449 10.164 7.9559 10.286 7.7739C10.408 7.5919 10.539 7.4149 10.677 7.2449C10.9562 6.90745 11.2666 6.59707 11.604 6.3179C11.774 6.1799 11.949 6.0489 12.133 5.9269C12.317 5.8049 12.503 5.6919 12.696 5.5889C12.889 5.4859 13.087 5.3889 13.289 5.3079C13.491 5.2269 13.698 5.1489 13.908 5.0869C14.1173 5.02231 14.3299 4.96923 14.545 4.9279C14.7601 4.88299 14.9774 4.84961 15.196 4.8279C15.414 4.8069 15.633 4.7959 15.851 4.7959C16.069 4.7959 16.288 4.8069 16.507 4.8279C16.725 4.8496 16.9416 4.88298 17.156 4.9279C17.372 4.9689 17.584 5.0279 17.795 5.0869C18.006 5.1459 18.211 5.2249 18.414 5.3079C18.6164 5.39128 18.8143 5.48507 19.007 5.5889C19.2 5.6889 19.389 5.8049 19.57 5.9269C19.751 6.0489 19.929 6.1799 20.097 6.3179C20.2673 6.45663 20.4302 6.60416 20.585 6.7599C20.739 6.9139 20.885 7.0769 21.027 7.2449C21.169 7.4129 21.296 7.5919 21.418 7.7739C21.54 7.9559 21.653 8.1439 21.756 8.3379C21.8598 8.53059 21.9536 8.72852 22.037 8.9309C22.12 9.1309 22.193 9.3399 22.258 9.5499C22.3223 9.75924 22.3754 9.97188 22.417 10.1869C22.461 10.4029 22.491 10.6189 22.517 10.8379C22.543 11.0569 22.549 11.2749 22.549 11.4939V11.4989Z" stroke="#F9F2E5" stroke-linecap="round" stroke-linejoin="round"/>
</g>
</g>
<defs>
<clipPath id="clip0_1_126">
<rect width="23" height="23" fill="white"/>
</clipPath>
</defs>
</svg>
